<?xml version="1.0" encoding="utf-8"?>
<!-- Generator: Adobe Illustrator 19.0.0, SVG Export Plug-In . SVG Version: 6.00 Build 0)  -->
<svg version="1.2" baseProfile="tiny" id="Layer_1" xmlns="http://www.w3.org/2000/svg" xmlns:xlink="http://www.w3.org/1999/xlink"
	 x="0px" y="0px" viewBox="0 0 204 38" xml:space="preserve">
<g id="XMLID_3_">
	<path id="XMLID_4_" fill="#FFFFFF" d="M23.8,32.7c0,3-1.5,4.5-4.4,4.5h-7.6v-4.4h7.6v-3H6c-0.6,0-1.2-0.1-1.7-0.3
		c-0.5-0.2-1-0.5-1.4-0.9c-0.4-0.4-0.7-0.8-1-1.4c-0.2-0.5-0.4-1.1-0.4-1.7V11.9c0-1.3,0.4-2.4,1.2-3.2C3.6,7.9,4.6,7.4,6,7.4h17.9
		V32.7z M19.4,25.3V11.9H6v13.4H19.4z"/>
	<path id="XMLID_7_" fill="#FFFFFF" d="M50.1,25.4c0,0.6-0.1,1.2-0.4,1.7c-0.2,0.5-0.6,1-1,1.4c-0.4,0.4-0.9,0.7-1.4,0.9
		c-0.5,0.2-1.1,0.3-1.7,0.3H32.2v7.4h-4.4V7.4h17.8c1.3,0,2.4,0.4,3.2,1.2c0.8,0.8,1.2,1.9,1.2,3.2V25.4z M45.6,25.3V11.9H32.2v13.4
		H45.6z"/>
	<path id="XMLID_10_" fill="#FFFFFF" d="M76,25.3c0,1.3-0.4,2.4-1.2,3.2s-1.9,1.2-3.2,1.2H58.2c-0.6,0-1.2-0.1-1.8-0.3
		c-0.6-0.2-1-0.5-1.4-0.9c-0.4-0.4-0.7-0.9-0.9-1.4s-0.3-1.1-0.3-1.8V7.4h4.4v17.9h13.4V7.4H76V25.3z"/>
	<path id="XMLID_12_" fill="#F1592B" d="M102.1,25.3c0,1.3-0.4,2.4-1.2,3.2c-0.8,0.8-1.9,1.2-3.2,1.2H79.8V1h4.4v6.4h13.4
		c0.6,0,1.1,0.1,1.7,0.3c0.5,0.2,1,0.5,1.4,0.9c0.4,0.4,0.7,0.9,1,1.4c0.3,0.5,0.4,1.1,0.4,1.7V25.3z M97.7,25.3V11.9H84.2v13.4
		H97.7z"/>
	<path id="XMLID_15_" fill="#F1592B" d="M109.8,20.8v4.5h16.6v4.4h-16.6c-0.6,0-1.2-0.1-1.8-0.3c-0.6-0.2-1-0.5-1.4-0.9
		c-0.4-0.4-0.7-0.9-0.9-1.4c-0.2-0.5-0.3-1.1-0.3-1.8V11.8c0-1.3,0.4-2.4,1.1-3.2c0.8-0.8,1.9-1.2,3.3-1.2H123
		c0.6,0,1.2,0.1,1.8,0.3c0.5,0.2,1,0.5,1.4,0.9c0.4,0.4,0.7,0.9,0.9,1.4c0.2,0.5,0.3,1.1,0.3,1.8v4.5c0,1.4-0.4,2.4-1.2,3.2
		c-0.8,0.8-1.9,1.2-3.2,1.2H109.8z M123,16.3v-4.5h-13.2v4.5H123z"/>
	<path id="XMLID_18_" fill="#F1592B" d="M151.9,29.7h-4.4V11.9h-12.2v17.9h-4.4V7.4h16.7c3,0,4.4,1.5,4.4,4.5V29.7z"/>
	<path id="XMLID_20_" fill="#F1592B" d="M176.9,29.7h-17.1c-3,0-4.4-1.5-4.4-4.4V11.9c0-1.3,0.4-2.3,1.1-3.2
		c0.7-0.9,1.9-1.3,3.3-1.3h17.1v4.4h-17.1v13.4h17.1V29.7z"/>
	<path id="XMLID_22_" fill="#F1592B" d="M202,29.7h-4.4V11.9h-13.4v17.9h-4.4V1h4.4v6.4h13.4c3,0,4.4,1.5,4.4,4.5V29.7z"/>
</g>
</svg>
